{
    "asset" : {
        "generator" : "Khronos glTF Blender I/O v3.3.32",
        "version" : "2.0"
    },
    "extensionsUsed" : [
        "KHR_materials_specular",
        "KHR_materials_ior"
    ],
    "scene" : 0,
    "scenes" : [
        {
            "name" : "Scene",
            "nodes" : [
                0
            ]
        }
    ],
    "nodes" : [
        {
            "mesh" : 0,
            "name" : "TorusKnot"
        }
    ],
    "materials" : [
        {
            "doubleSided" : true,
            "extensions" : {
                "KHR_materials_specular" : {
                    "specularColorFactor" : [
                        2.234655844832525,
                        2.234655844832525,
                        2.234655844832525
                    ]
                },
                "KHR_materials_ior" : {
                    "ior" : 1.4500000476837158
                }
            },
            "name" : "Material.001",
            "pbrMetallicRoughness" : {
                "baseColorFactor" : [
                    0.041829172521829605,
                    0.03530104458332062,
                    0.04042723402380943,
                    1
                ],
                "metallicFactor" : 0.9223529696464539,
                "roughnessFactor" : 0.029411762952804565
            }
        }
    ],
    "meshes" : [
        {
            "name" : "TorusKnot",
            "primitives" : [
                {
                    "attributes" : {
                        "POSITION" : 0,
                        "NORMAL" : 1
                    },
                    "indices" : 2,
                    "material" : 0
                }
            ]
        }
    ],
    "accessors" : [
        {
            "bufferView" : 0,
            "componentType" : 5126,
            "count" : 65280,
            "max" : [
                7.18276834487915,
                17.23029327392578,
                19.243715286254883
            ],
            "min" : [
                -8.921666145324707,
                -19.168033599853516,
                -20.430152893066406
            ],
            "type" : "VEC3"
        },
        {
            "bufferView" : 1,
            "componentType" : 5126,
            "count" : 65280,
            "type" : "VEC3"
        },
        {
            "bufferView" : 2,
            "componentType" : 5123,
            "count" : 97920,
            "type" : "SCALAR"
        }
    ],
    "bufferViews" : [
        {
            "buffer" : 0,
            "byteLength" : 783360,
            "byteOffset" : 0,
            "target" : 34962
        },
        {
            "buffer" : 0,
            "byteLength" : 783360,
            "byteOffset" : 783360,
            "target" : 34962
        },
        {
            "buffer" : 0,
            "byteLength" : 195840,
            "byteOffset" : 1566720,
            "target" : 34963
        }
    ],
    "buffers" : [
        {
            "byteLength" : 1762560,
            "uri" : "data:application/octet-stream;base64,"
        }
    ]
}
